<mxfile host="app.diagrams.net" modified="2021-03-11T06:38:20.716Z" agent="5.0 (Windows NT 10.0; Win64; x64) AppleWebKit/537.36 (KHTML, like Gecko) Chrome/86.0.4240.75 Safari/537.36" etag="e4bMymrlFyj2IjLSVGoP" version="14.4.7" type="github">
  <diagram id="mJ0bQvBQWK5W90ztWhSb" name="第 1 页">
    <mxGraphModel dx="3330" dy="1055" grid="1" gridSize="10" guides="1" tooltips="1" connect="1" arrows="1" fold="1" page="1" pageScale="1" pageWidth="1600" pageHeight="900" math="0" shadow="0">
      <root>
        <mxCell id="0" />
        <mxCell id="1" parent="0" />
        <mxCell id="k5G-6rHpSzE6jVI6OQLb-60" value="否" style="edgeStyle=orthogonalEdgeStyle;rounded=0;orthogonalLoop=1;jettySize=auto;html=1;exitX=0.5;exitY=1;exitDx=0;exitDy=0;fontSize=18;" edge="1" parent="1" source="k5G-6rHpSzE6jVI6OQLb-1" target="k5G-6rHpSzE6jVI6OQLb-4">
          <mxGeometry relative="1" as="geometry" />
        </mxCell>
        <mxCell id="k5G-6rHpSzE6jVI6OQLb-61" value="是" style="edgeStyle=orthogonalEdgeStyle;rounded=0;orthogonalLoop=1;jettySize=auto;html=1;exitX=1;exitY=0.5;exitDx=0;exitDy=0;entryX=0;entryY=0.5;entryDx=0;entryDy=0;entryPerimeter=0;fontSize=18;" edge="1" parent="1" source="k5G-6rHpSzE6jVI6OQLb-1" target="k5G-6rHpSzE6jVI6OQLb-6">
          <mxGeometry relative="1" as="geometry" />
        </mxCell>
        <mxCell id="k5G-6rHpSzE6jVI6OQLb-65" style="edgeStyle=orthogonalEdgeStyle;rounded=0;orthogonalLoop=1;jettySize=auto;html=1;exitX=0;exitY=0.5;exitDx=0;exitDy=0;endArrow=none;endFill=0;fontSize=18;" edge="1" parent="1" source="k5G-6rHpSzE6jVI6OQLb-1">
          <mxGeometry relative="1" as="geometry">
            <mxPoint x="80" y="269.95238095238096" as="targetPoint" />
          </mxGeometry>
        </mxCell>
        <mxCell id="k5G-6rHpSzE6jVI6OQLb-1" value="&lt;font style=&quot;font-size: 18px&quot;&gt;登陆&lt;/font&gt;" style="rounded=0;whiteSpace=wrap;html=1;strokeWidth=2;fontSize=18;" vertex="1" parent="1">
          <mxGeometry x="130" y="240" width="120" height="60" as="geometry" />
        </mxCell>
        <mxCell id="k5G-6rHpSzE6jVI6OQLb-3" style="edgeStyle=orthogonalEdgeStyle;rounded=0;orthogonalLoop=1;jettySize=auto;html=1;exitX=0.5;exitY=1;exitDx=0;exitDy=0;exitPerimeter=0;entryX=0.5;entryY=0;entryDx=0;entryDy=0;fontSize=18;" edge="1" parent="1" source="k5G-6rHpSzE6jVI6OQLb-2" target="k5G-6rHpSzE6jVI6OQLb-1">
          <mxGeometry relative="1" as="geometry" />
        </mxCell>
        <mxCell id="k5G-6rHpSzE6jVI6OQLb-2" value="开始" style="strokeWidth=2;html=1;shape=mxgraph.flowchart.terminator;whiteSpace=wrap;fontSize=18;" vertex="1" parent="1">
          <mxGeometry x="140" y="130" width="100" height="60" as="geometry" />
        </mxCell>
        <mxCell id="k5G-6rHpSzE6jVI6OQLb-67" style="edgeStyle=orthogonalEdgeStyle;rounded=0;jumpStyle=arc;orthogonalLoop=1;jettySize=auto;html=1;exitX=0.5;exitY=1;exitDx=0;exitDy=0;entryX=0.5;entryY=0;entryDx=0;entryDy=0;entryPerimeter=0;endArrow=classic;endFill=1;fontSize=18;" edge="1" parent="1" source="k5G-6rHpSzE6jVI6OQLb-4" target="k5G-6rHpSzE6jVI6OQLb-66">
          <mxGeometry relative="1" as="geometry" />
        </mxCell>
        <mxCell id="k5G-6rHpSzE6jVI6OQLb-4" value="&lt;font style=&quot;font-size: 18px&quot;&gt;浏览网站&lt;/font&gt;" style="rounded=0;whiteSpace=wrap;html=1;strokeWidth=2;fontSize=18;" vertex="1" parent="1">
          <mxGeometry x="130" y="380" width="120" height="60" as="geometry" />
        </mxCell>
        <mxCell id="k5G-6rHpSzE6jVI6OQLb-12" value="否" style="edgeStyle=orthogonalEdgeStyle;rounded=0;orthogonalLoop=1;jettySize=auto;html=1;exitX=1;exitY=0.5;exitDx=0;exitDy=0;exitPerimeter=0;entryX=0;entryY=0.5;entryDx=0;entryDy=0;fontSize=18;" edge="1" parent="1" source="k5G-6rHpSzE6jVI6OQLb-6" target="k5G-6rHpSzE6jVI6OQLb-10">
          <mxGeometry relative="1" as="geometry" />
        </mxCell>
        <mxCell id="k5G-6rHpSzE6jVI6OQLb-17" value="是" style="edgeStyle=orthogonalEdgeStyle;rounded=0;orthogonalLoop=1;jettySize=auto;html=1;fontSize=18;" edge="1" parent="1" source="k5G-6rHpSzE6jVI6OQLb-6" target="k5G-6rHpSzE6jVI6OQLb-16">
          <mxGeometry relative="1" as="geometry" />
        </mxCell>
        <mxCell id="k5G-6rHpSzE6jVI6OQLb-6" value="是否有账号" style="strokeWidth=2;html=1;shape=mxgraph.flowchart.decision;whiteSpace=wrap;fontSize=18;" vertex="1" parent="1">
          <mxGeometry x="320" y="235" width="140" height="70" as="geometry" />
        </mxCell>
        <mxCell id="k5G-6rHpSzE6jVI6OQLb-14" value="" style="edgeStyle=orthogonalEdgeStyle;rounded=0;orthogonalLoop=1;jettySize=auto;html=1;fontSize=18;" edge="1" parent="1" source="k5G-6rHpSzE6jVI6OQLb-10" target="k5G-6rHpSzE6jVI6OQLb-13">
          <mxGeometry relative="1" as="geometry" />
        </mxCell>
        <mxCell id="k5G-6rHpSzE6jVI6OQLb-10" value="注册账号" style="whiteSpace=wrap;html=1;rounded=0;fontSize=18;strokeWidth=2;" vertex="1" parent="1">
          <mxGeometry x="540" y="240" width="120" height="60" as="geometry" />
        </mxCell>
        <mxCell id="k5G-6rHpSzE6jVI6OQLb-20" style="edgeStyle=orthogonalEdgeStyle;rounded=0;orthogonalLoop=1;jettySize=auto;html=1;exitX=0.5;exitY=1;exitDx=0;exitDy=0;entryX=0.5;entryY=0;entryDx=0;entryDy=0;entryPerimeter=0;fontSize=18;" edge="1" parent="1" source="k5G-6rHpSzE6jVI6OQLb-13" target="k5G-6rHpSzE6jVI6OQLb-15">
          <mxGeometry relative="1" as="geometry" />
        </mxCell>
        <mxCell id="k5G-6rHpSzE6jVI6OQLb-13" value="输入用户名，密码，确认密码" style="whiteSpace=wrap;html=1;rounded=0;fontSize=18;strokeWidth=2;" vertex="1" parent="1">
          <mxGeometry x="525" y="340" width="150" height="60" as="geometry" />
        </mxCell>
        <mxCell id="k5G-6rHpSzE6jVI6OQLb-23" value="成功" style="edgeStyle=orthogonalEdgeStyle;rounded=0;orthogonalLoop=1;jettySize=auto;html=1;fontSize=18;" edge="1" parent="1" source="k5G-6rHpSzE6jVI6OQLb-15" target="k5G-6rHpSzE6jVI6OQLb-22">
          <mxGeometry relative="1" as="geometry" />
        </mxCell>
        <mxCell id="k5G-6rHpSzE6jVI6OQLb-85" value="失败" style="edgeStyle=orthogonalEdgeStyle;rounded=0;jumpStyle=arc;orthogonalLoop=1;jettySize=auto;html=1;exitX=0.5;exitY=1;exitDx=0;exitDy=0;exitPerimeter=0;entryX=0.333;entryY=0;entryDx=0;entryDy=0;entryPerimeter=0;endArrow=classic;endFill=1;fontSize=18;" edge="1" parent="1" source="k5G-6rHpSzE6jVI6OQLb-15" target="k5G-6rHpSzE6jVI6OQLb-24">
          <mxGeometry y="-7" relative="1" as="geometry">
            <mxPoint as="offset" />
          </mxGeometry>
        </mxCell>
        <mxCell id="k5G-6rHpSzE6jVI6OQLb-15" value="校验" style="strokeWidth=2;html=1;shape=mxgraph.flowchart.decision;whiteSpace=wrap;fontSize=18;" vertex="1" parent="1">
          <mxGeometry x="550" y="440" width="100" height="70" as="geometry" />
        </mxCell>
        <mxCell id="k5G-6rHpSzE6jVI6OQLb-19" style="edgeStyle=orthogonalEdgeStyle;rounded=0;orthogonalLoop=1;jettySize=auto;html=1;exitX=0.5;exitY=1;exitDx=0;exitDy=0;entryX=0.5;entryY=0;entryDx=0;entryDy=0;entryPerimeter=0;fontSize=18;" edge="1" parent="1" source="k5G-6rHpSzE6jVI6OQLb-16" target="k5G-6rHpSzE6jVI6OQLb-18">
          <mxGeometry relative="1" as="geometry" />
        </mxCell>
        <mxCell id="k5G-6rHpSzE6jVI6OQLb-16" value="输入用户名，密码" style="whiteSpace=wrap;html=1;fontSize=18;strokeWidth=2;" vertex="1" parent="1">
          <mxGeometry x="330" y="380" width="120" height="60" as="geometry" />
        </mxCell>
        <mxCell id="k5G-6rHpSzE6jVI6OQLb-31" value="成功" style="edgeStyle=orthogonalEdgeStyle;rounded=0;orthogonalLoop=1;jettySize=auto;html=1;exitX=0.5;exitY=1;exitDx=0;exitDy=0;exitPerimeter=0;fontSize=18;" edge="1" parent="1" source="k5G-6rHpSzE6jVI6OQLb-18" target="k5G-6rHpSzE6jVI6OQLb-30">
          <mxGeometry relative="1" as="geometry" />
        </mxCell>
        <mxCell id="k5G-6rHpSzE6jVI6OQLb-18" value="校验" style="strokeWidth=2;html=1;shape=mxgraph.flowchart.decision;whiteSpace=wrap;fontSize=18;" vertex="1" parent="1">
          <mxGeometry x="340" y="470" width="100" height="70" as="geometry" />
        </mxCell>
        <mxCell id="k5G-6rHpSzE6jVI6OQLb-27" style="edgeStyle=orthogonalEdgeStyle;rounded=0;orthogonalLoop=1;jettySize=auto;html=1;exitX=0.5;exitY=1;exitDx=0;exitDy=0;entryX=0;entryY=0.5;entryDx=0;entryDy=0;fontSize=18;jumpStyle=arc;" edge="1" parent="1" source="k5G-6rHpSzE6jVI6OQLb-22" target="k5G-6rHpSzE6jVI6OQLb-1">
          <mxGeometry relative="1" as="geometry" />
        </mxCell>
        <mxCell id="k5G-6rHpSzE6jVI6OQLb-87" style="edgeStyle=orthogonalEdgeStyle;rounded=0;jumpStyle=arc;orthogonalLoop=1;jettySize=auto;html=1;exitX=1;exitY=0.5;exitDx=0;exitDy=0;entryX=1;entryY=0.5;entryDx=0;entryDy=0;endArrow=classic;endFill=1;fontSize=18;" edge="1" parent="1" source="k5G-6rHpSzE6jVI6OQLb-24" target="k5G-6rHpSzE6jVI6OQLb-13">
          <mxGeometry relative="1" as="geometry" />
        </mxCell>
        <mxCell id="k5G-6rHpSzE6jVI6OQLb-24" value="提示输入内容不合规范" style="whiteSpace=wrap;html=1;fontSize=18;strokeWidth=2;" vertex="1" parent="1">
          <mxGeometry x="720" y="580" width="120" height="60" as="geometry" />
        </mxCell>
        <mxCell id="k5G-6rHpSzE6jVI6OQLb-33" value="否" style="edgeStyle=orthogonalEdgeStyle;rounded=0;orthogonalLoop=1;jettySize=auto;html=1;exitX=0.5;exitY=1;exitDx=0;exitDy=0;exitPerimeter=0;entryX=0.5;entryY=0;entryDx=0;entryDy=0;entryPerimeter=0;fontSize=18;" edge="1" parent="1" source="k5G-6rHpSzE6jVI6OQLb-30" target="k5G-6rHpSzE6jVI6OQLb-32">
          <mxGeometry relative="1" as="geometry" />
        </mxCell>
        <mxCell id="k5G-6rHpSzE6jVI6OQLb-37" value="是" style="edgeStyle=orthogonalEdgeStyle;rounded=0;orthogonalLoop=1;jettySize=auto;html=1;fontSize=18;" edge="1" parent="1" source="k5G-6rHpSzE6jVI6OQLb-30" target="k5G-6rHpSzE6jVI6OQLb-36">
          <mxGeometry relative="1" as="geometry" />
        </mxCell>
        <mxCell id="k5G-6rHpSzE6jVI6OQLb-30" value="是否被封禁" style="strokeWidth=2;html=1;shape=mxgraph.flowchart.decision;whiteSpace=wrap;fontSize=18;" vertex="1" parent="1">
          <mxGeometry x="315" y="610" width="150" height="70" as="geometry" />
        </mxCell>
        <mxCell id="k5G-6rHpSzE6jVI6OQLb-35" value="否" style="edgeStyle=orthogonalEdgeStyle;rounded=0;orthogonalLoop=1;jettySize=auto;html=1;fontSize=18;" edge="1" parent="1" source="k5G-6rHpSzE6jVI6OQLb-32" target="k5G-6rHpSzE6jVI6OQLb-34">
          <mxGeometry relative="1" as="geometry" />
        </mxCell>
        <mxCell id="k5G-6rHpSzE6jVI6OQLb-39" value="是" style="edgeStyle=orthogonalEdgeStyle;rounded=0;orthogonalLoop=1;jettySize=auto;html=1;fontSize=18;" edge="1" parent="1" source="k5G-6rHpSzE6jVI6OQLb-32" target="k5G-6rHpSzE6jVI6OQLb-38">
          <mxGeometry relative="1" as="geometry" />
        </mxCell>
        <mxCell id="k5G-6rHpSzE6jVI6OQLb-32" value="是否为管理员" style="strokeWidth=2;html=1;shape=mxgraph.flowchart.decision;whiteSpace=wrap;fontSize=18;" vertex="1" parent="1">
          <mxGeometry x="315" y="720" width="150" height="70" as="geometry" />
        </mxCell>
        <mxCell id="k5G-6rHpSzE6jVI6OQLb-45" value="" style="edgeStyle=orthogonalEdgeStyle;rounded=0;orthogonalLoop=1;jettySize=auto;html=1;fontSize=18;" edge="1" parent="1" source="k5G-6rHpSzE6jVI6OQLb-34" target="k5G-6rHpSzE6jVI6OQLb-44">
          <mxGeometry relative="1" as="geometry" />
        </mxCell>
        <mxCell id="k5G-6rHpSzE6jVI6OQLb-48" value="" style="edgeStyle=orthogonalEdgeStyle;rounded=0;orthogonalLoop=1;jettySize=auto;html=1;fontSize=18;" edge="1" parent="1" source="k5G-6rHpSzE6jVI6OQLb-34" target="k5G-6rHpSzE6jVI6OQLb-47">
          <mxGeometry relative="1" as="geometry" />
        </mxCell>
        <mxCell id="k5G-6rHpSzE6jVI6OQLb-49" value="" style="edgeStyle=orthogonalEdgeStyle;rounded=0;orthogonalLoop=1;jettySize=auto;html=1;fontSize=18;" edge="1" parent="1" source="k5G-6rHpSzE6jVI6OQLb-34" target="k5G-6rHpSzE6jVI6OQLb-47">
          <mxGeometry relative="1" as="geometry" />
        </mxCell>
        <mxCell id="k5G-6rHpSzE6jVI6OQLb-51" style="edgeStyle=orthogonalEdgeStyle;rounded=0;orthogonalLoop=1;jettySize=auto;html=1;exitX=0;exitY=0.5;exitDx=0;exitDy=0;fontSize=18;" edge="1" parent="1" source="k5G-6rHpSzE6jVI6OQLb-34" target="k5G-6rHpSzE6jVI6OQLb-50">
          <mxGeometry relative="1" as="geometry" />
        </mxCell>
        <mxCell id="k5G-6rHpSzE6jVI6OQLb-62" style="edgeStyle=orthogonalEdgeStyle;rounded=0;orthogonalLoop=1;jettySize=auto;html=1;exitX=0;exitY=0.5;exitDx=0;exitDy=0;fontSize=18;entryX=1;entryY=0.5;entryDx=0;entryDy=0;jumpStyle=arc;" edge="1" parent="1" source="k5G-6rHpSzE6jVI6OQLb-34" target="k5G-6rHpSzE6jVI6OQLb-4">
          <mxGeometry relative="1" as="geometry">
            <mxPoint x="210" y="370" as="targetPoint" />
          </mxGeometry>
        </mxCell>
        <mxCell id="k5G-6rHpSzE6jVI6OQLb-34" value="登陆成功" style="whiteSpace=wrap;html=1;fontSize=18;strokeWidth=2;" vertex="1" parent="1">
          <mxGeometry x="330" y="840" width="120" height="60" as="geometry" />
        </mxCell>
        <mxCell id="k5G-6rHpSzE6jVI6OQLb-36" value="提示账号已被封禁" style="whiteSpace=wrap;html=1;fontSize=18;strokeWidth=2;" vertex="1" parent="1">
          <mxGeometry x="560" y="615" width="120" height="60" as="geometry" />
        </mxCell>
        <mxCell id="k5G-6rHpSzE6jVI6OQLb-41" style="edgeStyle=orthogonalEdgeStyle;rounded=0;orthogonalLoop=1;jettySize=auto;html=1;exitX=1;exitY=0.5;exitDx=0;exitDy=0;entryX=0;entryY=0.5;entryDx=0;entryDy=0;entryPerimeter=0;fontSize=18;" edge="1" parent="1" source="k5G-6rHpSzE6jVI6OQLb-38" target="k5G-6rHpSzE6jVI6OQLb-40">
          <mxGeometry relative="1" as="geometry" />
        </mxCell>
        <mxCell id="k5G-6rHpSzE6jVI6OQLb-38" value="跳转到管理员系统" style="whiteSpace=wrap;html=1;fontSize=18;strokeWidth=2;" vertex="1" parent="1">
          <mxGeometry x="560" y="725" width="120" height="60" as="geometry" />
        </mxCell>
        <mxCell id="k5G-6rHpSzE6jVI6OQLb-53" value="" style="edgeStyle=orthogonalEdgeStyle;rounded=0;orthogonalLoop=1;jettySize=auto;html=1;fontSize=18;" edge="1" parent="1" source="k5G-6rHpSzE6jVI6OQLb-40" target="k5G-6rHpSzE6jVI6OQLb-52">
          <mxGeometry relative="1" as="geometry" />
        </mxCell>
        <mxCell id="k5G-6rHpSzE6jVI6OQLb-54" value="是" style="edgeLabel;html=1;align=center;verticalAlign=middle;resizable=0;points=[];fontSize=18;" vertex="1" connectable="0" parent="k5G-6rHpSzE6jVI6OQLb-53">
          <mxGeometry x="-0.2042" y="-3" relative="1" as="geometry">
            <mxPoint as="offset" />
          </mxGeometry>
        </mxCell>
        <mxCell id="k5G-6rHpSzE6jVI6OQLb-88" style="edgeStyle=orthogonalEdgeStyle;rounded=0;jumpStyle=arc;orthogonalLoop=1;jettySize=auto;html=1;exitX=1;exitY=0.5;exitDx=0;exitDy=0;exitPerimeter=0;entryX=0.5;entryY=0;entryDx=0;entryDy=0;endArrow=classic;endFill=1;fontSize=18;" edge="1" parent="1" source="k5G-6rHpSzE6jVI6OQLb-40" target="k5G-6rHpSzE6jVI6OQLb-1">
          <mxGeometry relative="1" as="geometry" />
        </mxCell>
        <mxCell id="k5G-6rHpSzE6jVI6OQLb-40" value="是否为管理员" style="strokeWidth=2;html=1;shape=mxgraph.flowchart.decision;whiteSpace=wrap;fontSize=18;" vertex="1" parent="1">
          <mxGeometry x="715" y="720" width="150" height="70" as="geometry" />
        </mxCell>
        <mxCell id="k5G-6rHpSzE6jVI6OQLb-42" value="收藏、点赞" style="whiteSpace=wrap;html=1;fontSize=18;strokeWidth=2;" vertex="1" parent="1">
          <mxGeometry x="130" y="610" width="120" height="60" as="geometry" />
        </mxCell>
        <mxCell id="k5G-6rHpSzE6jVI6OQLb-46" value="成功" style="edgeStyle=orthogonalEdgeStyle;rounded=0;orthogonalLoop=1;jettySize=auto;html=1;exitX=0.5;exitY=1;exitDx=0;exitDy=0;fontSize=18;endArrow=none;endFill=0;" edge="1" parent="1" source="k5G-6rHpSzE6jVI6OQLb-44">
          <mxGeometry relative="1" as="geometry">
            <mxPoint x="80" y="270" as="targetPoint" />
          </mxGeometry>
        </mxCell>
        <mxCell id="k5G-6rHpSzE6jVI6OQLb-44" value="修改密码" style="whiteSpace=wrap;html=1;fontSize=18;strokeWidth=2;" vertex="1" parent="1">
          <mxGeometry x="330" y="930" width="120" height="60" as="geometry" />
        </mxCell>
        <mxCell id="k5G-6rHpSzE6jVI6OQLb-47" value="修改头像" style="whiteSpace=wrap;html=1;fontSize=18;strokeWidth=2;" vertex="1" parent="1">
          <mxGeometry x="130" y="790" width="120" height="60" as="geometry" />
        </mxCell>
        <mxCell id="k5G-6rHpSzE6jVI6OQLb-50" value="查看收藏" style="whiteSpace=wrap;html=1;fontSize=18;strokeWidth=2;" vertex="1" parent="1">
          <mxGeometry x="130" y="880" width="120" height="60" as="geometry" />
        </mxCell>
        <mxCell id="k5G-6rHpSzE6jVI6OQLb-57" value="" style="edgeStyle=orthogonalEdgeStyle;rounded=0;orthogonalLoop=1;jettySize=auto;html=1;fontSize=18;" edge="1" parent="1" source="k5G-6rHpSzE6jVI6OQLb-52" target="k5G-6rHpSzE6jVI6OQLb-56">
          <mxGeometry relative="1" as="geometry" />
        </mxCell>
        <mxCell id="k5G-6rHpSzE6jVI6OQLb-59" style="edgeStyle=orthogonalEdgeStyle;rounded=0;orthogonalLoop=1;jettySize=auto;html=1;exitX=0.5;exitY=1;exitDx=0;exitDy=0;entryX=0.5;entryY=0;entryDx=0;entryDy=0;fontSize=18;" edge="1" parent="1" source="k5G-6rHpSzE6jVI6OQLb-52" target="k5G-6rHpSzE6jVI6OQLb-58">
          <mxGeometry relative="1" as="geometry" />
        </mxCell>
        <mxCell id="k5G-6rHpSzE6jVI6OQLb-52" value="管理员系统" style="whiteSpace=wrap;html=1;fontSize=18;strokeWidth=2;" vertex="1" parent="1">
          <mxGeometry x="730" y="830" width="120" height="60" as="geometry" />
        </mxCell>
        <mxCell id="k5G-6rHpSzE6jVI6OQLb-56" value="用户管理" style="whiteSpace=wrap;html=1;fontSize=18;strokeWidth=2;" vertex="1" parent="1">
          <mxGeometry x="630" y="950" width="120" height="60" as="geometry" />
        </mxCell>
        <mxCell id="k5G-6rHpSzE6jVI6OQLb-58" value="用户上传审核" style="whiteSpace=wrap;html=1;fontSize=18;strokeWidth=2;" vertex="1" parent="1">
          <mxGeometry x="830" y="950" width="120" height="60" as="geometry" />
        </mxCell>
        <mxCell id="k5G-6rHpSzE6jVI6OQLb-69" value="否" style="edgeStyle=orthogonalEdgeStyle;rounded=0;jumpStyle=arc;orthogonalLoop=1;jettySize=auto;html=1;exitX=0.5;exitY=1;exitDx=0;exitDy=0;exitPerimeter=0;entryX=0.5;entryY=0;entryDx=0;entryDy=0;endArrow=classic;endFill=1;fontSize=18;" edge="1" parent="1" source="k5G-6rHpSzE6jVI6OQLb-66" target="k5G-6rHpSzE6jVI6OQLb-42">
          <mxGeometry relative="1" as="geometry" />
        </mxCell>
        <mxCell id="k5G-6rHpSzE6jVI6OQLb-71" style="edgeStyle=orthogonalEdgeStyle;rounded=0;jumpStyle=arc;orthogonalLoop=1;jettySize=auto;html=1;exitX=0;exitY=0.5;exitDx=0;exitDy=0;exitPerimeter=0;entryX=1;entryY=0.5;entryDx=0;entryDy=0;endArrow=classic;endFill=1;fontSize=18;" edge="1" parent="1" source="k5G-6rHpSzE6jVI6OQLb-66" target="k5G-6rHpSzE6jVI6OQLb-70">
          <mxGeometry relative="1" as="geometry" />
        </mxCell>
        <mxCell id="k5G-6rHpSzE6jVI6OQLb-66" value="是否点赞、收藏" style="strokeWidth=2;html=1;shape=mxgraph.flowchart.decision;whiteSpace=wrap;fontSize=18;" vertex="1" parent="1">
          <mxGeometry x="115" y="455" width="150" height="100" as="geometry" />
        </mxCell>
        <mxCell id="k5G-6rHpSzE6jVI6OQLb-70" value="取消收藏、取消点赞" style="whiteSpace=wrap;html=1;fontSize=18;strokeWidth=2;" vertex="1" parent="1">
          <mxGeometry x="-40" y="475" width="100" height="60" as="geometry" />
        </mxCell>
        <mxCell id="k5G-6rHpSzE6jVI6OQLb-72" value="&lt;font style=&quot;font-size: 18px&quot;&gt;评论&lt;/font&gt;" style="rounded=0;whiteSpace=wrap;html=1;strokeWidth=2;fontSize=18;" vertex="1" parent="1">
          <mxGeometry x="-40" y="380" width="100" height="60" as="geometry" />
        </mxCell>
        <mxCell id="k5G-6rHpSzE6jVI6OQLb-80" style="edgeStyle=orthogonalEdgeStyle;rounded=0;jumpStyle=arc;orthogonalLoop=1;jettySize=auto;html=1;exitX=0;exitY=0.5;exitDx=0;exitDy=0;entryX=1;entryY=0.5;entryDx=0;entryDy=0;endArrow=classic;endFill=1;fontSize=18;" edge="1" parent="1" source="k5G-6rHpSzE6jVI6OQLb-4" target="k5G-6rHpSzE6jVI6OQLb-72">
          <mxGeometry relative="1" as="geometry">
            <mxPoint x="125" y="409.71" as="sourcePoint" />
            <mxPoint x="60" y="409.71" as="targetPoint" />
          </mxGeometry>
        </mxCell>
        <mxCell id="k5G-6rHpSzE6jVI6OQLb-22" value="注册成功" style="whiteSpace=wrap;html=1;fontSize=18;strokeWidth=2;" vertex="1" parent="1">
          <mxGeometry x="720" y="445" width="120" height="60" as="geometry" />
        </mxCell>
      </root>
    </mxGraphModel>
  </diagram>
</mxfile>
